<svg xmlns="http://www.w3.org/2000/svg" viewBox="0 0 30 36">
  <defs/>
  <g fill="#FFF" fill-rule="evenodd">
    <path d="M14.0800537 23.5692176c-.8954532-.5574504-4.67394488-2.9002829-4.67394488-2.9002829s-3.77672931-2.3465941-4.67341614-2.9017159c-.08565051-.0530223-.19509283.0068069-.19985119.1085524-.0098692.2126265-.02449675.5237741-.03242736.6975296-.00370094.0843699.01744733.1669485.06168247.2384211.19756013.3195667.77966638 1.2608913 1.07292245 1.7357631.11049973.1791294.14345579.3964132.09111381.6009789l-.75798939 2.9636947c-.03031253.1189419.01110284.2441533.1059176.3206415.39071437.3150885.87359997.6617037 1.45588245 1.0230076.58193002.361483 1.10605475.6398499 1.56021394.849073.11014726.0506936.23879926.0309894.32885566-.0506936l2.24788528-2.03885c.1552636-.1407956.3604019-.2102978.567655-.1920266.5493264.0481858 1.6384625.1443782 2.0087336.1771589.0830069.0073443.1654852-.0112852.2375656-.0533806.1485666-.0865194.4141537-.2416454.5955001-.3475109.0868842-.0506936.0891753-.1771589.003701-.2303603M7.72619166 27.3180707c-.03881812-.2375392-.18897367-.4420326-.40300267-.5493428-.59956353-.3009659-1.07632064-.5887846-1.20671423-.6689119-.1303936-.0801273-.60256311-.3757632-1.14231144-.7755114-.1925026-.1426656-.4418208-.1837064-.66943615-.1099751l-.13021715.0421068c-.90428578.2931486-1.60107105 1.0244212-1.85374173 1.9465069C1.70144281 29.4630304.5354876 33.7184827.01126652 35.6315885c-.0771069.2810673.25919918.4876927.47216951.2904836 1.4509155-1.3433314 4.67811294-4.3314932 6.39193299-5.9185822.69925552-.6474143 1.0270922-1.6055662.87287839-2.5493272l-.02205575-.136092zM29.8506268 1.58544671c.2743906-.36774731.1098976-.64628416-.0127212-.76034482l-.0003534-.00035756c-.1293328-.10261883-.2865818-.17573923-.4675064-.20344989L25.3939448.0114811c-.3689165-.056494-.7381865.09832815-.9595718.40207276l-2.1696818 2.97612512c-.3337565.45767287-.2194418 1.06087142.1692634 1.38517555.0282695.02395632.0360436.06579048.0164317.09850694-.0164317.02699555-.0477048.04004637-.0768577.03557691l-1.0942051-.16787298-1.5072929-.23116055c-.4194482-.06418147-.8394265.11155776-1.0912015.45713653l-6.342079 8.69989652c-.0825115.1131667-.2365801.1440954-.3554886.0715113l-6.10514541-3.7309278c-.40372337-.24671424-.93059562-.10941238-1.16540891.3078566-.22880602.4065422-.06625657.9269663.32933933 1.1688536l.15777898.0963616c.07809441.047555.12014525.1380169.10654057.2293727l-.18534172 1.2432255c-.01766842.119424-.14965151.1819965-.25159828.1196028 0 0-.87087637-.5238209-.89313858-.5375869-.72210828-.4473037-1.66595521-.2175734-2.10801905.5130942-.39365238.6507536-.25566202 1.4783192.28887865 1.9678146.01678499.0153749.17474066.1383745.21555471.1635823.00088342.0005363.00176684.0012514.00265026.001609a20.3576587 20.3576587 0 00.00035337.0003576l4.56074896 2.825236c2.46527449 1.5065662 4.33918702.271207 4.92418832-.1718061.5192749-.3933126 1.1092234-.8275655 2.0933543-.2229367.3526616.2168583.7979058.2088132 1.153041-.0041119l1.1353726-.6806096c.3349932-.2007682.7521446-.1989805 1.0857243.0046482l3.4582397 2.113519c.1358701.0829532.3118476.0477339.4061969-.0815229l8.4527483-11.57733592c.6894217-.93036314.1791578-1.38285143-.2408206-1.49405164-.0270326-.00625725-.0533586-.01394472-.0812747-.0182354l-2.0272744-.31071698c-.0298596-.00482701-.0598959-.01769906-.0874586-.03468302-.1123712-.06936604-.147708-.21846728-.0789779-.33234917.6871248-.93912328 2.7211132-3.71126216 2.7211132-3.71126216"/>
  </g>
</svg>
